<svg width="45" height="34" viewBox="0 0 45 34" fill="none" xmlns="http://www.w3.org/2000/svg">
<path d="M36.8672 3.68359C36.8672 3.68359 36.8672 3.68359 36.7949 3.68359C34.1211 2.45508 31.1582 1.51562 28.1953 1.00977C28.123 1.00977 28.123 0.9375 28.123 0.9375L28.0508 1.00977C27.6172 1.73242 27.2559 2.52734 26.9668 3.25C25.377 3.0332 23.7148 2.88867 22.0527 2.88867C20.3906 2.88867 18.8008 3.0332 17.2109 3.25C16.9219 2.52734 16.5605 1.73242 16.127 1.00977H16.0547C15.9824 1.00977 15.9824 1.00977 15.9824 1.00977C13.0195 1.51562 10.0566 2.45508 7.38281 3.68359C7.31055 3.68359 7.31055 3.68359 7.31055 3.68359C1.81836 11.9219 0.300781 19.9434 1.02344 27.8926C1.02344 27.8926 1.02344 27.9648 1.0957 27.9648C4.20312 30.3496 7.81641 32.1562 11.7188 33.3125C11.791 33.3125 11.791 33.3125 11.8633 33.3125C12.6582 32.1562 13.3809 31 14.0312 29.7715V29.6992C14.0312 29.627 13.959 29.627 13.959 29.5547C12.8027 29.1211 11.6465 28.6152 10.6348 27.9648C10.5625 27.9648 10.5625 27.9648 10.5625 27.8926C10.5625 27.8203 10.5625 27.8203 10.6348 27.748C10.8516 27.6035 11.0684 27.459 11.2852 27.2422C11.2852 27.2422 11.2852 27.2422 11.3574 27.2422C11.3574 27.2422 11.3574 27.2422 11.4297 27.2422C18.3672 30.4219 25.8828 30.4219 32.748 27.2422H32.8203H32.8926C33.1094 27.459 33.3262 27.6035 33.543 27.748C33.6152 27.8203 33.6152 27.8203 33.6152 27.8926C33.6152 27.9648 33.6152 27.9648 33.543 27.9648C32.459 28.6152 31.375 29.1211 30.2188 29.5547C30.1465 29.627 30.1465 29.627 30.1465 29.6992V29.7715C30.7969 31 31.5195 32.1562 32.3145 33.3125C32.3145 33.3125 32.3867 33.3125 32.459 33.3125C36.2891 32.1562 39.9023 30.3496 43.082 27.9648C43.1543 27.9648 43.1543 27.8926 43.1543 27.8926C44.0215 18.7148 41.6367 10.7656 36.8672 3.68359ZM15.043 23.0508C12.9473 23.0508 11.2129 21.0996 11.2129 18.7871C11.2129 16.4023 12.9473 14.5234 15.043 14.5234C17.2109 14.5234 18.873 16.4023 18.873 18.7871C18.873 21.0996 17.1387 23.0508 15.043 23.0508ZM29.1348 23.0508C27.0391 23.0508 25.377 21.0996 25.377 18.7871C25.377 16.4023 27.0391 14.5234 29.1348 14.5234C31.3027 14.5234 33.0371 16.4023 32.9648 18.7871C32.9648 21.0996 31.3027 23.0508 29.1348 23.0508Z" fill="#AFBEF6"/>
</svg>
