<svg width="57" height="42" viewBox="0 0 57 42" fill="none" xmlns="http://www.w3.org/2000/svg">
<path d="M47.1016 4.30078C47.1016 4.30078 47.1016 4.30078 47.0098 4.30078C43.6133 2.74023 39.8496 1.54688 36.0859 0.904297C35.9941 0.904297 35.9941 0.8125 35.9941 0.8125L35.9023 0.904297C35.3516 1.82227 34.8926 2.83203 34.5254 3.75C32.5059 3.47461 30.3945 3.29102 28.2832 3.29102C26.1719 3.29102 24.1523 3.47461 22.1328 3.75C21.7656 2.83203 21.3066 1.82227 20.7559 0.904297H20.6641C20.5723 0.904297 20.5723 0.904297 20.5723 0.904297C16.8086 1.54688 13.0449 2.74023 9.64844 4.30078C9.55664 4.30078 9.55664 4.30078 9.55664 4.30078C2.58008 14.7656 0.652344 24.9551 1.57031 35.0527C1.57031 35.0527 1.57031 35.1445 1.66211 35.1445C5.60938 38.1738 10.1992 40.4688 15.1562 41.9375C15.248 41.9375 15.248 41.9375 15.3398 41.9375C16.3496 40.4688 17.2676 39 18.0938 37.4395V37.3477C18.0938 37.2559 18.002 37.2559 18.002 37.1641C16.5332 36.6133 15.0645 35.9707 13.7793 35.1445C13.6875 35.1445 13.6875 35.1445 13.6875 35.0527C13.6875 34.9609 13.6875 34.9609 13.7793 34.8691C14.0547 34.6855 14.3301 34.502 14.6055 34.2266C14.6055 34.2266 14.6055 34.2266 14.6973 34.2266C14.6973 34.2266 14.6973 34.2266 14.7891 34.2266C23.6016 38.2656 33.1484 38.2656 41.8691 34.2266H41.9609H42.0527C42.3281 34.502 42.6035 34.6855 42.8789 34.8691C42.9707 34.9609 42.9707 34.9609 42.9707 35.0527C42.9707 35.1445 42.9707 35.1445 42.8789 35.1445C41.502 35.9707 40.125 36.6133 38.6562 37.1641C38.5645 37.2559 38.5645 37.2559 38.5645 37.3477V37.4395C39.3906 39 40.3086 40.4688 41.3184 41.9375C41.3184 41.9375 41.4102 41.9375 41.502 41.9375C46.3672 40.4688 50.957 38.1738 54.9961 35.1445C55.0879 35.1445 55.0879 35.0527 55.0879 35.0527C56.1895 23.3945 53.1602 13.2969 47.1016 4.30078ZM19.3789 28.9023C16.7168 28.9023 14.5137 26.4238 14.5137 23.4863C14.5137 20.457 16.7168 18.0703 19.3789 18.0703C22.1328 18.0703 24.2441 20.457 24.2441 23.4863C24.2441 26.4238 22.041 28.9023 19.3789 28.9023ZM37.2793 28.9023C34.6172 28.9023 32.5059 26.4238 32.5059 23.4863C32.5059 20.457 34.6172 18.0703 37.2793 18.0703C40.0332 18.0703 42.2363 20.457 42.1445 23.4863C42.1445 26.4238 40.0332 28.9023 37.2793 28.9023Z" fill="white"/>
</svg>
