<svg width="36" height="32" viewBox="0 0 36 32" fill="none" xmlns="http://www.w3.org/2000/svg">
<path d="M2.12735 18.1392L2.2525 17.9451L9.79656 6.29471C9.90676 6.12409 10.166 6.14177 10.2494 6.32703C11.5097 9.11542 12.5972 12.5832 12.0878 14.7421C11.8703 15.6303 11.2744 16.8333 10.604 17.9451C10.5176 18.1069 10.4222 18.2658 10.3209 18.4187C10.2733 18.4892 10.1928 18.5305 10.1064 18.5305H2.34781C2.13927 18.5305 2.01715 18.3069 2.12735 18.1392Z" fill="#FFF4F4"/>
<path d="M35.7538 20.3037V22.1479C35.7538 22.2537 35.6882 22.3479 35.5929 22.389C35.0089 22.6361 33.0097 23.542 32.1784 24.6832C30.057 27.598 28.4362 31.7658 24.8131 31.7658H9.69825C4.34111 31.7658 0 27.4657 0 22.1596V21.989C0 21.8478 0.116193 21.7331 0.25926 21.7331H8.68518C8.85203 21.7331 8.97421 21.8861 8.95933 22.0478C8.89971 22.589 9.00102 23.142 9.26022 23.645C9.76082 24.6479 10.7977 25.2744 11.918 25.2744H16.0892V22.0596H11.9656C11.7541 22.0596 11.6289 21.8184 11.7511 21.6478C11.7958 21.5802 11.8464 21.5096 11.9001 21.4302C12.2904 20.8831 12.8475 20.0331 13.4017 19.0654C13.7801 18.4124 14.1466 17.7153 14.4416 17.0153C14.5012 16.8888 14.5489 16.7595 14.5965 16.6329C14.677 16.4094 14.7604 16.2006 14.82 15.9918C14.8795 15.8153 14.9272 15.63 14.9749 15.4564C15.1149 14.8623 15.1745 14.2329 15.1745 13.5799C15.1745 13.324 15.1626 13.0564 15.1388 12.8004C15.1269 12.521 15.0911 12.2416 15.0553 11.9622C15.0315 11.7151 14.9868 11.471 14.9391 11.2151C14.8795 10.8416 14.7961 10.471 14.7007 10.0974L14.668 9.95625C14.5965 9.70038 14.5369 9.45621 14.4535 9.20034C14.2181 8.39735 13.9469 7.61497 13.6609 6.8826C13.5567 6.59142 13.4374 6.31201 13.3183 6.0326C13.1425 5.61195 12.9637 5.22961 12.7999 4.86781C12.7164 4.7031 12.6449 4.55309 12.5734 4.40015C12.493 4.2266 12.4096 4.05312 12.3262 3.88834C12.2666 3.76187 12.198 3.64424 12.1504 3.52661L11.6409 2.59715C11.5693 2.47068 11.6885 2.32066 11.8285 2.3589L15.0166 3.21189H15.0255C15.0315 3.21189 15.0345 3.21482 15.0375 3.21482L15.4576 3.32952L15.9194 3.45892L16.0892 3.506V1.63537C16.0892 0.732373 16.8222 0 17.728 0C18.1808 0 18.592 0.182329 18.8869 0.479426C19.1819 0.776523 19.3667 1.18241 19.3667 1.63537V4.41192L19.7063 4.50601C19.7332 4.51486 19.76 4.52663 19.7838 4.54425C19.8672 4.60602 19.9864 4.69725 20.1383 4.80896C20.2575 4.90312 20.3857 5.01782 20.5406 5.13545C20.8475 5.37962 21.2139 5.69434 21.6162 6.05607C21.7234 6.1473 21.8277 6.24139 21.923 6.33555C22.4415 6.81198 23.0225 7.37087 23.5767 7.98854C23.7316 8.16202 23.8836 8.3385 24.0385 8.52382C24.1934 8.71207 24.3573 8.89739 24.5003 9.08271C24.688 9.32974 24.8906 9.58561 25.0664 9.85332C25.1498 9.97979 25.2451 10.1092 25.3256 10.2357C25.552 10.5739 25.7517 10.9239 25.9424 11.2739C26.0228 11.4357 26.1063 11.6122 26.1777 11.7857C26.3893 12.2534 26.5561 12.7299 26.6634 13.2064C26.6962 13.3093 26.72 13.4211 26.7319 13.5211V13.5446C26.7676 13.6858 26.7796 13.8358 26.7915 13.9888C26.8392 14.477 26.8153 14.9652 26.7081 15.4564C26.6634 15.6653 26.6038 15.8623 26.5323 16.0712C26.4608 16.2712 26.3893 16.48 26.2969 16.6771C26.1182 17.0859 25.9066 17.4948 25.6563 17.8771C25.5759 18.0183 25.4806 18.1683 25.3852 18.3094C25.2809 18.4595 25.1737 18.6007 25.0783 18.7389C24.9472 18.9154 24.8072 19.1007 24.6642 19.2654C24.5361 19.4389 24.4049 19.6125 24.2619 19.7654C24.0623 19.9977 23.8716 20.2184 23.672 20.4302C23.5528 20.5684 23.4247 20.7096 23.2936 20.836C23.1655 20.9772 23.0344 21.1037 22.9152 21.2213C22.7156 21.4184 22.5487 21.5713 22.4087 21.6978L22.0809 21.9949C22.0333 22.0361 21.9707 22.0596 21.9052 22.0596H19.3667V25.2744H22.5607C23.2757 25.2744 23.955 25.0244 24.5033 24.5656C24.691 24.4038 25.5103 23.7038 26.4787 22.6479C26.5114 22.6126 26.5532 22.5861 26.6008 22.5743L35.4231 20.0566C35.5869 20.0095 35.7538 20.1331 35.7538 20.3037Z" fill="#FFF4F4"/>
</svg>
