<svg width="44" height="43" viewBox="0 0 44 43" fill="none" xmlns="http://www.w3.org/2000/svg">
<path fill-rule="evenodd" clip-rule="evenodd" d="M43.6104 21.6666C43.6104 33.448 33.9345 42.9999 22 42.9999C10.0656 42.9999 0.389648 33.448 0.389648 21.6666C0.389648 9.88518 10.0656 0.333252 22 0.333252C33.9369 0.333252 43.6104 9.88518 43.6104 21.6666ZM11.0513 22.3834L11.1446 22.2387L16.7663 13.557C16.8484 13.4299 17.0416 13.4431 17.1037 13.5811C18.0429 15.659 18.8533 18.2431 18.4737 19.8519C18.3116 20.5138 17.8676 21.4103 17.368 22.2387C17.3036 22.3593 17.2325 22.4777 17.1571 22.5916C17.1215 22.6442 17.0616 22.6749 16.9972 22.6749H11.2156C11.0602 22.6749 10.9692 22.5084 11.0513 22.3834ZM36.1092 25.3709V23.9966C36.1092 23.8695 35.9849 23.7774 35.8628 23.8125L29.2886 25.6887C29.2531 25.6974 29.2219 25.7172 29.1976 25.7435C28.4933 26.5114 27.8948 27.0267 27.7364 27.1631L27.7255 27.1725C27.317 27.5144 26.8108 27.7007 26.2779 27.7007H23.8978V25.3051H25.7894C25.8383 25.3051 25.8849 25.2876 25.9204 25.2569L26.1647 25.0355C26.269 24.9412 26.3933 24.8273 26.5421 24.6804C26.5546 24.668 26.5673 24.6555 26.5802 24.6429C26.6584 24.5659 26.7421 24.4837 26.8241 24.3933C26.9218 24.2991 27.0173 24.1939 27.1061 24.0909C27.2548 23.933 27.3969 23.7686 27.5457 23.5955C27.6522 23.4815 27.7499 23.3522 27.8454 23.2229C27.952 23.1001 28.0563 22.9621 28.154 22.8306C28.1902 22.7781 28.2287 22.7251 28.268 22.6709C28.3059 22.6187 28.3446 22.5654 28.3827 22.5105C28.4538 22.4053 28.5248 22.2935 28.5847 22.1883C28.7713 21.9034 28.9289 21.5987 29.0621 21.2941C29.1232 21.1638 29.172 21.0267 29.2194 20.8934C29.2255 20.8764 29.2315 20.8594 29.2375 20.8426C29.2908 20.687 29.3352 20.5401 29.3685 20.3845C29.4484 20.0185 29.4662 19.6546 29.4307 19.2908C29.4218 19.1768 29.4129 19.0651 29.3863 18.9598V18.9423C29.3774 18.8678 29.3596 18.7845 29.3352 18.7078C29.2553 18.3527 29.1309 17.9976 28.9733 17.6491C28.92 17.5198 28.8578 17.3883 28.7979 17.2677C28.6558 17.007 28.507 16.7461 28.3383 16.4941C28.3044 16.4408 28.2669 16.3867 28.2295 16.3328C28.2008 16.2914 28.1721 16.2501 28.1451 16.2091C28.0382 16.0463 27.9179 15.8893 27.8012 15.7369C27.775 15.7027 27.749 15.6687 27.7233 15.6349C27.6544 15.5456 27.5791 15.4564 27.5032 15.3666C27.4617 15.3174 27.42 15.268 27.3792 15.2184C27.2637 15.0803 27.1505 14.9488 27.035 14.8195C26.622 14.3593 26.1891 13.9428 25.8028 13.5877C25.7317 13.5176 25.654 13.4475 25.5741 13.3795C25.2743 13.1099 25.0012 12.8754 24.7726 12.6935C24.7037 12.6411 24.6419 12.5896 24.5844 12.5416C24.5455 12.5092 24.5086 12.4784 24.4728 12.4502C24.4024 12.3984 24.3414 12.3525 24.2904 12.3142C24.2594 12.2909 24.2321 12.2703 24.2086 12.2529C24.1909 12.2398 24.1709 12.231 24.1509 12.2244L23.8978 12.1543V10.0852C23.8978 9.7477 23.7601 9.44524 23.5403 9.22385C23.3205 9.00245 23.0141 8.86659 22.6766 8.86659C22.0017 8.86659 21.4555 9.41234 21.4555 10.0852V11.4792L21.3289 11.4441L20.9848 11.3477L20.6717 11.2622C20.6708 11.2622 20.6699 11.2618 20.6688 11.2614C20.6673 11.2608 20.6654 11.26 20.6628 11.26H20.6562L18.2805 10.6244C18.1762 10.5959 18.0873 10.7077 18.1406 10.8019L18.5203 11.4946C18.5419 11.5479 18.5692 11.6012 18.5973 11.656C18.6155 11.6913 18.6339 11.7272 18.6513 11.7641C18.7134 11.8869 18.7756 12.0162 18.8356 12.1455C18.8888 12.2595 18.9421 12.3713 19.0043 12.494C19.0305 12.5518 19.0572 12.6104 19.0843 12.6697C19.1834 12.8871 19.2877 13.1158 19.3906 13.362L19.3915 13.364C19.48 13.5715 19.5685 13.7791 19.646 13.9954C19.8591 14.5412 20.0612 15.1242 20.2365 15.7225C20.2802 15.8563 20.315 15.9857 20.3503 16.1169C20.3654 16.1728 20.3805 16.2289 20.3964 16.2858L20.4208 16.391C20.4919 16.6694 20.554 16.9456 20.5984 17.2239C20.634 17.4146 20.6673 17.5965 20.685 17.7806C20.7117 17.9889 20.7383 18.1971 20.7472 18.4053C20.765 18.596 20.7739 18.7954 20.7739 18.9861C20.7739 19.4727 20.7294 19.9418 20.6251 20.3845C20.6186 20.4081 20.6121 20.4321 20.6055 20.4562C20.5763 20.5641 20.5459 20.676 20.5096 20.7834C20.4767 20.8987 20.4341 21.014 20.3898 21.1338C20.3743 21.1756 20.3586 21.2181 20.3431 21.2612L20.3354 21.2816C20.3025 21.3693 20.2689 21.4587 20.2277 21.5462C20.0079 22.0678 19.7347 22.5873 19.4528 23.0738C19.0398 23.7949 18.6246 24.4284 18.3338 24.836C18.3161 24.8623 18.2988 24.8872 18.2822 24.9112C18.2612 24.9414 18.2413 24.9702 18.2228 24.9982C18.1317 25.1254 18.225 25.3051 18.3826 25.3051H21.4555V27.7007H18.3471C17.5123 27.7007 16.7396 27.2339 16.3666 26.4865C16.1734 26.1117 16.098 25.6996 16.1424 25.2963C16.1535 25.1758 16.0624 25.0618 15.9381 25.0618H9.65921C9.5526 25.0618 9.46601 25.1473 9.46601 25.2525V25.3796C9.46601 29.3336 12.7009 32.538 16.693 32.538H27.9564C30.0677 32.538 31.2666 30.6387 32.445 28.7719C32.7734 28.2515 33.1003 27.7337 33.4449 27.2602C34.0644 26.4098 35.5542 25.7347 35.9894 25.5506C36.0604 25.5199 36.1092 25.4497 36.1092 25.3709Z" fill="white"/>
</svg>
