<svg width="32" height="32" viewBox="0 0 32 32" fill="none" xmlns="http://www.w3.org/2000/svg">
<path fill-rule="evenodd" clip-rule="evenodd" d="M32 16.1279C32 24.8506 24.8361 31.9227 16 31.9227C7.16395 31.9227 0 24.8506 0 16.1279C0 7.40511 7.16395 0.333008 16 0.333008C24.8379 0.333008 32 7.40511 32 16.1279ZM7.89372 16.6586L7.96277 16.5515L12.125 10.1237C12.1858 10.0295 12.3289 10.0393 12.3749 10.1415C13.0702 11.6799 13.6702 13.5932 13.3891 14.7843C13.2691 15.2744 12.9404 15.9381 12.5705 16.5515C12.5228 16.6408 12.4702 16.7284 12.4143 16.8128C12.388 16.8517 12.3436 16.8744 12.296 16.8744H8.01536C7.9003 16.8744 7.83292 16.7511 7.89372 16.6586ZM26.4462 18.8705V17.853C26.4462 17.7589 26.3542 17.6907 26.2638 17.7167L21.3963 19.1058C21.37 19.1123 21.347 19.1269 21.3289 19.1463C20.8075 19.7149 20.3644 20.0964 20.2471 20.1974L20.239 20.2044C19.9366 20.4575 19.5618 20.5955 19.1673 20.5955H17.4051V18.8218H18.8056C18.8418 18.8218 18.8763 18.8088 18.9026 18.7861L19.0834 18.6222C19.1607 18.5524 19.2527 18.468 19.3629 18.3593C19.3721 18.3501 19.3815 18.3409 19.391 18.3316C19.449 18.2746 19.5109 18.2136 19.5716 18.1467C19.644 18.0769 19.7147 17.999 19.7804 17.9228C19.8906 17.8059 19.9958 17.6842 20.1059 17.556C20.1848 17.4716 20.2571 17.3759 20.3278 17.2801C20.4067 17.1893 20.484 17.087 20.5563 16.9897C20.5831 16.9508 20.6116 16.9116 20.6407 16.8714C20.6688 16.8328 20.6974 16.7933 20.7256 16.7527C20.7782 16.6748 20.8308 16.5921 20.8752 16.5142C21.0133 16.3032 21.13 16.0776 21.2287 15.8521C21.2739 15.7556 21.31 15.6541 21.3451 15.5554C21.3496 15.5428 21.3541 15.5303 21.3585 15.5178C21.398 15.4026 21.4308 15.2939 21.4555 15.1786C21.5147 14.9076 21.5278 14.6382 21.5015 14.3689C21.4949 14.2845 21.4884 14.2017 21.4687 14.1238V14.1109C21.4621 14.0557 21.4489 13.994 21.4308 13.9372C21.3717 13.6743 21.2796 13.4114 21.1629 13.1534C21.1235 13.0577 21.0774 12.9603 21.033 12.871C20.9278 12.678 20.8177 12.4848 20.6928 12.2982C20.6677 12.2588 20.6399 12.2188 20.6122 12.1789C20.591 12.1482 20.5697 12.1176 20.5497 12.0873C20.4705 11.9667 20.3815 11.8504 20.2951 11.7377C20.2757 11.7123 20.2564 11.6871 20.2374 11.6621C20.1864 11.596 20.1306 11.53 20.0745 11.4634C20.0437 11.427 20.0129 11.3905 19.9826 11.3538C19.8971 11.2515 19.8133 11.1541 19.7278 11.0584C19.422 10.7176 19.1015 10.4093 18.8155 10.1464C18.7629 10.0945 18.7053 10.0426 18.6462 9.99224C18.4242 9.79266 18.222 9.61902 18.0527 9.48431C18.0017 9.44557 17.956 9.40741 17.9134 9.3719C17.8846 9.34791 17.8573 9.32512 17.8308 9.30418C17.7786 9.26584 17.7335 9.23187 17.6957 9.20347C17.6728 9.18621 17.6526 9.17101 17.6352 9.15813C17.622 9.14841 17.6073 9.14191 17.5924 9.13703L17.4051 9.08512V7.55323C17.4051 7.30332 17.3031 7.07938 17.1404 6.91547C16.9776 6.75155 16.7508 6.65096 16.5009 6.65096C16.0012 6.65096 15.5968 7.05502 15.5968 7.55323V8.5853L15.5031 8.55933L15.2483 8.48793L15.0165 8.42465C15.0149 8.42465 15.0132 8.42303 15.01 8.42303H15.005L13.2461 7.95242C13.1689 7.93132 13.1031 8.01409 13.1425 8.08387L13.4236 8.59667C13.4396 8.63614 13.4599 8.67561 13.4807 8.71618C13.4941 8.74232 13.5078 8.76891 13.5206 8.79625C13.5667 8.88716 13.6127 8.98287 13.6571 9.07863C13.6965 9.16301 13.736 9.24577 13.782 9.33664C13.8014 9.37945 13.8212 9.42278 13.8412 9.46672C13.9146 9.6277 13.9918 9.79698 14.068 9.97929L14.0687 9.9808C14.1342 10.1345 14.1997 10.2881 14.2571 10.4483C14.4149 10.8523 14.5645 11.284 14.6943 11.727C14.7266 11.826 14.7524 11.9219 14.7786 12.019C14.7897 12.0603 14.8009 12.1019 14.8127 12.1441L14.8308 12.2219C14.8834 12.4281 14.9294 12.6325 14.9623 12.8386C14.9886 12.9798 15.0132 13.1145 15.0264 13.2508C15.0461 13.4049 15.0659 13.5591 15.0724 13.7133C15.0856 13.8545 15.0922 14.0021 15.0922 14.1433C15.0922 14.5036 15.0593 14.8508 14.982 15.1786C14.9772 15.1962 14.9724 15.2139 14.9675 15.2318C14.9459 15.3116 14.9234 15.3944 14.8965 15.474C14.8722 15.5593 14.8406 15.6447 14.8078 15.7334C14.7964 15.7644 14.7847 15.7958 14.7732 15.8277L14.7676 15.8428C14.7431 15.9078 14.7183 15.974 14.6878 16.0387C14.525 16.4249 14.3228 16.8095 14.1141 17.1698C13.8083 17.7037 13.5009 18.1727 13.2855 18.4745C13.2724 18.4939 13.2597 18.5123 13.2474 18.5301C13.2319 18.5525 13.2171 18.5738 13.2034 18.5946C13.136 18.6887 13.205 18.8218 13.3217 18.8218H15.5968V20.5955H13.2954C12.6773 20.5955 12.1053 20.2498 11.8291 19.6965C11.6861 19.419 11.6302 19.1139 11.6631 18.8153C11.6713 18.726 11.6039 18.6416 11.5118 18.6416H6.86304C6.78411 18.6416 6.72 18.7049 6.72 18.7828V18.877C6.72 21.8044 9.11509 24.1769 12.0708 24.1769H20.41C21.9732 24.1769 22.8608 22.7707 23.7333 21.3885C23.9765 21.0033 24.2185 20.6198 24.4736 20.2693C24.9322 19.6397 26.0353 19.1398 26.3575 19.0035C26.4101 18.9808 26.4462 18.9289 26.4462 18.8705Z" fill="#AFBEF6"/>
</svg>
