<svg width="130" height="100" viewBox="0 0 130 100" fill="none" xmlns="http://www.w3.org/2000/svg">
<path fill-rule="evenodd" clip-rule="evenodd" d="M114.273 50C114.273 77.0604 92.0482 99 64.6364 99C37.2245 99 15 77.0604 15 50C15 22.9396 37.2245 1 64.6364 1C92.0539 1 114.273 22.9396 114.273 50ZM39.4885 51.6464L39.7027 51.3142L52.6151 31.3734C52.8037 31.0813 53.2475 31.1116 53.3902 31.4287C55.5474 36.2013 57.4088 42.1367 56.5367 45.8318C56.1644 47.3521 55.1446 49.4112 53.9971 51.3142C53.8492 51.5911 53.686 51.863 53.5126 52.1247C53.431 52.2455 53.2934 52.3161 53.1454 52.3161H39.8658C39.5089 52.3161 39.2999 51.9334 39.4885 51.6464ZM97.0434 58.5082V55.3518C97.0434 55.0597 96.7578 54.8483 96.4773 54.9288L81.3772 59.2382C81.2957 59.2584 81.2242 59.3037 81.1682 59.3641C79.5506 61.1279 78.1759 62.3116 77.8121 62.6249L77.787 62.6464C76.8487 63.4318 75.686 63.8597 74.4621 63.8597H68.9952V58.3572H73.3402C73.4523 58.3572 73.5595 58.3169 73.641 58.2465L74.202 57.738C74.4417 57.5215 74.7272 57.2597 75.0689 56.9224C75.0977 56.894 75.1269 56.8653 75.1563 56.8363C75.336 56.6595 75.5282 56.4705 75.7165 56.2629C75.941 56.0465 76.1603 55.8048 76.3642 55.5682C76.706 55.2057 77.0323 54.8281 77.3739 54.4305C77.6187 54.1687 77.8432 53.8716 78.0625 53.5746C78.3072 53.2927 78.5469 52.9756 78.7713 52.6735C78.8544 52.553 78.9428 52.4312 79.0331 52.3067C79.1202 52.1868 79.209 52.0644 79.2965 51.9384C79.4598 51.6968 79.6229 51.44 79.7606 51.1984C80.189 50.544 80.5511 49.8442 80.8571 49.1444C80.9973 48.8452 81.1094 48.5302 81.2184 48.2239C81.2323 48.1849 81.2461 48.1461 81.2599 48.1074C81.3824 47.7499 81.4843 47.4127 81.5608 47.0552C81.7444 46.2145 81.7852 45.3787 81.7036 44.5431C81.6832 44.2814 81.6628 44.0246 81.6016 43.7829V43.7427C81.5812 43.5715 81.5404 43.3802 81.4843 43.204C81.3007 42.3884 81.0152 41.5729 80.653 40.7724C80.5307 40.4754 80.3879 40.1733 80.2502 39.8964C79.9238 39.2974 79.5821 38.6983 79.1946 38.1193C79.1167 37.9969 79.0307 37.8729 78.9448 37.7491C78.8788 37.654 78.8129 37.559 78.7509 37.4649C78.5052 37.0908 78.229 36.7302 77.961 36.3804C77.9008 36.3017 77.8409 36.2236 77.782 36.146C77.6238 35.941 77.4507 35.736 77.2764 35.5296C77.1811 35.4167 77.0853 35.3033 76.9915 35.1894C76.7264 34.8722 76.4663 34.5701 76.2011 34.2732C75.2525 33.216 74.2581 32.2594 73.3707 31.4439C73.2076 31.2828 73.029 31.1217 72.8455 30.9656C72.1569 30.3464 71.5298 29.8077 71.0045 29.3898C70.8462 29.2697 70.7043 29.1513 70.5722 29.0411C70.483 28.9667 70.3983 28.896 70.316 28.831C70.1542 28.7121 70.0142 28.6068 69.8971 28.5187C69.8259 28.4651 69.7632 28.4179 69.7092 28.3779C69.6684 28.3478 69.6225 28.3276 69.5765 28.3125L68.9952 28.1514V23.3991C68.9952 22.6238 68.679 21.9291 68.1741 21.4206C67.6693 20.9121 66.9655 20.6 66.1904 20.6C64.6401 20.6 63.3855 21.8535 63.3855 23.3991V26.6009L63.0949 26.5203L62.3045 26.2988L61.5854 26.1025C61.5833 26.1025 61.5812 26.1016 61.5787 26.1006C61.5752 26.0992 61.5709 26.0975 61.565 26.0975H61.5496L56.093 24.6375C55.8534 24.572 55.6493 24.8288 55.7718 25.0453L56.6438 26.6361C56.6934 26.7586 56.7562 26.881 56.8208 27.0069C56.8624 27.088 56.9047 27.1705 56.9447 27.2553C57.0874 27.5373 57.2303 27.8342 57.368 28.1313C57.4903 28.3931 57.6127 28.6498 57.7556 28.9317C57.8157 29.0645 57.877 29.1989 57.9391 29.3352C58.1669 29.8346 58.4064 30.3598 58.6428 30.9254L58.6449 30.9302C58.8481 31.4068 59.0514 31.8835 59.2293 32.3802C59.7188 33.6338 60.183 34.9729 60.5858 36.3473C60.686 36.6545 60.7661 36.9518 60.8472 37.2531C60.8817 37.3814 60.9165 37.5103 60.953 37.6411L61.0091 37.8827C61.1723 38.5221 61.315 39.1564 61.4171 39.7958C61.4987 40.2337 61.5751 40.6516 61.6159 41.0745L61.616 41.0747C61.6772 41.5529 61.7384 42.031 61.7588 42.5092C61.7996 42.9473 61.82 43.4053 61.82 43.8433C61.82 44.9609 61.718 46.0383 61.4783 47.0552C61.4634 47.1095 61.4484 47.1645 61.4334 47.22C61.3661 47.4678 61.2964 47.7247 61.2131 47.9715C61.1375 48.2363 61.0396 48.5011 60.9379 48.7761C60.9023 48.8723 60.8663 48.9697 60.8306 49.0689C60.8247 49.0844 60.8189 49.1 60.813 49.1157C60.7372 49.3173 60.6601 49.5225 60.5654 49.7234C60.0606 50.9215 59.4333 52.1147 58.7857 53.2322C57.8371 54.8885 56.8835 56.3435 56.2154 57.2799C56.1748 57.34 56.1351 57.3972 56.097 57.4523C56.0489 57.5217 56.0031 57.5878 55.9605 57.6524C55.7513 57.9444 55.9656 58.3572 56.3276 58.3572H63.3855V63.8597H56.2461C54.3285 63.8597 52.5539 62.7873 51.697 61.0707C51.2534 60.2098 51.08 59.2634 51.182 58.3371C51.2075 58.0602 50.9984 57.7984 50.7128 57.7984H36.291C36.0461 57.7984 35.8473 57.9947 35.8473 58.2363V58.5284C35.8473 67.6102 43.2775 74.9704 52.4468 74.9704H78.3174C83.1668 74.9704 85.9205 70.6078 88.627 66.32C89.3815 65.1248 90.1323 63.9353 90.9238 62.8478C92.3466 60.8945 95.7685 59.344 96.7681 58.921C96.9312 58.8506 97.0434 58.6894 97.0434 58.5082Z" fill="#AFBEF6"/>
</svg>
