<svg width="47" height="39" viewBox="0 0 47 39" fill="none" xmlns="http://www.w3.org/2000/svg">
<path d="M42.1348 9.82812C43.9707 8.45117 45.623 6.79883 46.9082 4.87109C45.2559 5.60547 43.3281 6.15625 41.4004 6.33984C43.4199 5.14648 44.8887 3.31055 45.623 1.01562C43.7871 2.11719 41.6758 2.94336 39.5645 3.40234C37.7285 1.47461 35.25 0.373047 32.4961 0.373047C27.1719 0.373047 22.8574 4.6875 22.8574 10.0117C22.8574 10.7461 22.9492 11.4805 23.1328 12.2148C15.1465 11.7559 7.98633 7.90039 3.21289 2.11719C2.38672 3.49414 1.92773 5.14648 1.92773 6.98242C1.92773 10.2871 3.58008 13.2246 6.24219 14.9688C4.68164 14.877 3.12109 14.5098 1.83594 13.7754V13.8672C1.83594 18.5488 5.14062 22.4043 9.54688 23.3223C8.8125 23.5059 7.89453 23.6895 7.06836 23.6895C6.42578 23.6895 5.875 23.5977 5.23242 23.5059C6.42578 27.3613 10.0059 30.1152 14.2285 30.207C10.9238 32.7773 6.79297 34.3379 2.29492 34.3379C1.46875 34.3379 0.734375 34.2461 0 34.1543C4.22266 36.9082 9.27148 38.4688 14.7793 38.4688C32.4961 38.4688 42.1348 23.873 42.1348 11.1133C42.1348 10.6543 42.1348 10.2871 42.1348 9.82812Z" fill="white"/>
</svg>
