<svg width="37" height="31" viewBox="0 0 37 31" fill="none" xmlns="http://www.w3.org/2000/svg">
<path d="M33.1699 7.60938C34.6152 6.52539 35.916 5.22461 36.9277 3.70703C35.627 4.28516 34.1094 4.71875 32.5918 4.86328C34.1816 3.92383 35.3379 2.47852 35.916 0.671875C34.4707 1.53906 32.8086 2.18945 31.1465 2.55078C29.7012 1.0332 27.75 0.166016 25.582 0.166016C21.3906 0.166016 17.9941 3.5625 17.9941 7.75391C17.9941 8.33203 18.0664 8.91016 18.2109 9.48828C11.9238 9.12695 6.28711 6.0918 2.5293 1.53906C1.87891 2.62305 1.51758 3.92383 1.51758 5.36914C1.51758 7.9707 2.81836 10.2832 4.91406 11.6562C3.68555 11.584 2.45703 11.2949 1.44531 10.7168V10.7891C1.44531 14.4746 4.04688 17.5098 7.51562 18.2324C6.9375 18.377 6.21484 18.5215 5.56445 18.5215C5.05859 18.5215 4.625 18.4492 4.11914 18.377C5.05859 21.4121 7.87695 23.5801 11.2012 23.6523C8.59961 25.6758 5.34766 26.9043 1.80664 26.9043C1.15625 26.9043 0.578125 26.832 0 26.7598C3.32422 28.9277 7.29883 30.1562 11.6348 30.1562C25.582 30.1562 33.1699 18.666 33.1699 8.62109C33.1699 8.25977 33.1699 7.9707 33.1699 7.60938Z" fill="#AFBEF6"/>
</svg>
